<?xml version="1.0" encoding="UTF-8"?>
<svg id="_레이어_1" data-name="레이어 1" xmlns="http://www.w3.org/2000/svg" viewBox="0 0 168.39 566.93">
  <defs>
    <style>
      .cls-1 {
        fill: none;
        stroke: #000;
        stroke-miterlimit: 10;
      }
    </style>
  </defs>
  <path class="cls-1" d="M18.59,352.93h6.52c-7.19-10.94-11.36-24.03-11.36-38.08,0-14.02,4.17-27.12,11.36-38.06h-6.52c-6.95,0-12.58-5.64-12.58-12.58,0-6.95,5.64-12.58,12.58-12.58h35.77c5.13-2.35,10.61-4.11,16.33-5.15V107.61c0-6.95,5.64-12.58,12.58-12.58,6.95,0,12.58,5.64,12.58,12.58v138.87c5.7,1.04,11.18,2.8,16.33,5.15h35.75c6.95,0,12.58,5.64,12.58,12.58,0,6.95-5.64,12.58-12.58,12.58h-6.52c7.19,10.94,11.38,24.03,11.38,38.06,0,14.05-4.19,27.14-11.38,38.08h6.52c6.95,0,12.58,5.64,12.58,12.58,0,6.95-5.64,12.58-12.58,12.58h-35.79c-5.13,2.35-10.58,4.11-16.29,5.13v37.59c0,6.95-5.64,12.58-12.58,12.58s-12.58-5.64-12.58-12.58v-37.59c-5.7-1.02-11.16-2.77-16.29-5.13H18.59c-6.95,0-12.58-5.64-12.58-12.58,0-6.95,5.64-12.58,12.58-12.58ZM95.86,352.93h20.79c10.58-9.28,17.26-22.9,17.26-38.08,0-15.18-6.68-28.78-17.26-38.06h-20.79s0,76.13,0,76.13ZM70.7,352.93v-76.13s-20.81,0-20.81,0c-10.58,9.28-17.26,22.88-17.26,38.06,0,15.18,6.68,28.8,17.26,38.08h20.81Z"/>
</svg>
