<?xml version="1.0" encoding="UTF-8"?>
<svg id="_레이어_1" data-name="레이어 1" xmlns="http://www.w3.org/2000/svg" viewBox="0 0 566.93 566.93">
  <defs>
    <style>
      .cls-1 {
        fill: none;
        stroke: #000;
        stroke-miterlimit: 10;
      }
    </style>
  </defs>
  <path class="cls-1" d="M211.71,262.18c-44.8,0-81.24,41.93-81.24,93.45s36.44,93.42,81.24,93.42c11.58,0,22.61-2.81,32.59-7.86,7.72,5.08,16.29,7.86,25.4,7.86,6.9,0,13.5-1.59,19.65-4.59,2.3-1.11,4.55-2.43,6.74-3.94.54-.35,1.08-.76,1.62-1.16.49-.35.99-.73,1.46-1.11,1.17-.92,2.35-1.92,3.48-2.97.92-.84,1.81-1.73,2.7-2.62,0-.03.02-.03.05-.05.87-.89,1.71-1.84,2.54-2.81,1.27-1.46,2.51-3,3.69-4.62-4.46-6.05-8.34-13.07-11.41-20.87-1.46,2.54-3.03,4.89-4.67,7.05l-.85,1.05c-1.08,1.3-2.21,2.54-3.36,3.7-2.91-4.56-5.45-10.53-7.49-17.52-3.5-11.88-5.56-26.78-5.56-42.96s2.07-31.08,5.56-42.96c2.04-7.02,4.58-12.99,7.49-17.55.38.38.77.78,1.15,1.19.38.4.75.81,1.13,1.24.7.78,1.36,1.59,1.97,2.43.77,1,1.53,2.02,2.25,3.1.33.49.66,1,.96,1.51.47.73.94,1.51,1.41,2.32,3.1-7.8,6.95-14.82,11.41-20.87-.75-1.03-1.53-2.02-2.32-3-.8-1-1.62-1.94-2.47-2.86-.23-.27-.47-.54-.73-.78-.59-.67-1.2-1.3-1.81-1.89-.19-.19-.38-.38-.59-.54-.73-.73-1.48-1.43-2.23-2.08-.75-.67-1.53-1.32-2.3-1.92-.47-.38-.96-.76-1.46-1.11-.54-.4-1.08-.81-1.62-1.16-2.18-1.51-4.44-2.83-6.74-3.94-6.15-3-12.75-4.59-19.65-4.59-9.11,0-17.68,2.78-25.4,7.86-9.98-5.05-21.01-7.86-32.59-7.86ZM272.89,425.85c-.49.05-1.01.11-1.5.16-.56.03-1.15.05-1.71.05-1.46,0-2.89-.14-4.32-.35.82-.84,1.64-1.7,2.44-2.59.73-.78,1.43-1.59,2.14-2.43.09-.08.16-.19.21-.27.85,1.89,1.76,3.7,2.75,5.43ZM260.5,312.96c.42.62.82,1.27,1.22,1.92.16.24.31.51.47.78-2.54,11.88-3.9,25.33-3.9,39.96s1.36,28.05,3.9,39.93c-.16.27-.31.54-.47.78-.4.65-.8,1.3-1.22,1.92-.38.54-.73,1.08-1.13,1.62-.33.51-.68,1-1.06,1.46-.77,1.08-1.62,2.11-2.47,3.13-.42.51-.85,1-1.29,1.51-.66.73-1.36,1.48-2.07,2.19-.61.65-1.22,1.27-1.88,1.86-.75.73-1.55,1.43-2.35,2.11-.73.65-1.48,1.24-2.23,1.84-11.22-12.66-18.57-34.07-18.57-58.35s7.37-45.71,18.57-58.4c.75.59,1.5,1.22,2.23,1.84.99.84,1.97,1.73,2.89,2.65.56.51,1.08,1.05,1.62,1.62.61.62,1.2,1.27,1.78,1.92.45.49.87,1,1.29,1.51,1.67,1.97,3.22,4.05,4.65,6.21ZM271.39,285.21c.49.05,1.01.11,1.5.16-.99,1.73-1.9,3.54-2.75,5.43-.05-.08-.12-.19-.21-.27-.7-.84-1.41-1.65-2.14-2.43-.8-.89-1.62-1.75-2.44-2.59,1.43-.22,2.86-.35,4.32-.35.56,0,1.15.03,1.71.05ZM226.83,287.31c-11.97,16.93-19.35,41.09-19.35,68.31s7.37,51.35,19.35,68.28c-4.84,1.4-9.91,2.16-15.12,2.16-33.83,0-61.28-31.54-61.28-70.44s27.45-70.47,61.28-70.47c5.21,0,10.28.76,15.12,2.16ZM325.8,262.18c-5.61,0-10.87,1.59-15.71,4.59,2.3,1.11,4.55,2.43,6.74,3.94.54.35,1.08.76,1.62,1.16.49.35.99.73,1.46,1.11.77.59,1.55,1.24,2.3,1.92.75.65,1.5,1.35,2.23,2.08.21.16.4.35.59.54.61.59,1.22,1.22,1.81,1.89.26.24.49.51.73.78.85.92,1.67,1.86,2.47,2.86.8.97,1.57,1.97,2.32,3-4.46,6.05-8.31,13.07-11.41,20.87-4.16,10.31-6.97,21.98-8.19,34.56v.08c-.45,4.56-.68,9.26-.68,14.07s.23,9.48.68,14.07v.08c1.22,12.56,4.04,24.22,8.19,34.53,3.08,7.8,6.95,14.82,11.41,20.87-1.17,1.62-2.42,3.16-3.69,4.62-.82.97-1.67,1.92-2.54,2.81-.02.03-.05.03-.05.05-.89.92-1.78,1.78-2.7,2.62-1.13,1.05-2.3,2.05-3.48,2.97-.47.38-.96.76-1.46,1.11-.54.4-1.08.81-1.62,1.16-2.18,1.51-4.44,2.83-6.74,3.94,4.84,3,10.1,4.59,15.71,4.59,7.89,0,15.12-3.16,21.39-8.99,8.15,5.78,17.33,8.99,27.07,8.99,34.89,0,62.2-41.04,62.2-93.42s-27.31-93.45-62.2-93.45c-9.74,0-18.92,3.21-27.07,8.99-6.27-5.83-13.5-8.99-21.39-8.99ZM338.86,394.04c-.35-.92-.7-1.86-1.03-2.81-.68-1.89-1.29-3.86-1.85-5.86-.28-1-.56-2.02-.8-3.05-.26-.97-.47-1.97-.68-2.97-.02-.08-.05-.16-.07-.27-.14-.65-.28-1.3-.4-1.97-.09-.54-.19-1.08-.28-1.59-.33-1.84-.61-3.7-.85-5.59-.12-.94-.21-1.89-.31-2.83s-.19-1.89-.23-2.83c-.02-.03-.02-.05,0-.08l-.02-.03v-.05c-.07-.84-.12-1.7-.14-2.54-.05-.67-.09-1.38-.09-2.08-.05-1.27-.07-2.57-.07-3.86s.02-2.59.07-3.86c0-.7.05-1.4.09-2.08.02-.84.07-1.7.14-2.54v-.05l.02-.03s-.02-.05,0-.08c.07-.94.14-1.89.23-2.83s.19-1.89.31-2.83c.23-1.89.52-3.75.85-5.59.09-.51.19-1.05.28-1.59.12-.67.26-1.32.4-1.97.02-.11.05-.19.07-.27.21-1,.42-2,.68-2.97.23-1.03.52-2.05.8-3.05.54-1.94,1.13-3.83,1.76-5.64.02-.08.07-.16.09-.24.33-.92.66-1.81.99-2.7.07-.13.12-.27.16-.4.33-.81.66-1.62,1.01-2.4.33-.81.68-1.59,1.06-2.35.85-1.81,1.76-3.56,2.72-5.24.54,1.3,1.03,2.65,1.53,4,.12.38.26.76.38,1.13.35.97.68,1.97.99,3,.12.32.23.67.33,1.03.14.43.28.89.4,1.35.07.24.14.46.21.73.19.62.38,1.27.54,1.94.02.13.07.27.09.4.07.19.12.41.16.62.02.05.05.13.07.24.35,1.32.66,2.67.96,4.05.12.51.23,1.03.33,1.57.07.3.14.59.19.89.12.49.21,1,.31,1.51.16.86.33,1.73.45,2.62.07.3.12.59.16.92.07.4.14.84.19,1.27.07.3.09.57.14.86.05.27.07.54.12.84.09.57.16,1.13.21,1.7.05.13.07.3.07.46.12.84.21,1.65.28,2.48.05.4.09.81.12,1.24.14,1.38.26,2.78.35,4.18.05.84.09,1.65.12,2.48.09,2.38.14,4.78.14,7.21s-.05,4.83-.14,7.21c-.02.84-.07,1.65-.12,2.48-.09,1.4-.21,2.81-.35,4.18-.02.43-.07.84-.12,1.24-.07.84-.16,1.65-.28,2.48,0,.16-.02.32-.07.46-.05.57-.12,1.13-.21,1.7-.05.3-.07.57-.12.84-.05.3-.07.57-.14.86-.05.43-.12.86-.19,1.27-.05.3-.09.59-.16.92-.12.89-.28,1.75-.45,2.62-.09.51-.19,1.03-.31,1.51-.05.3-.12.59-.19.89-.09.51-.21,1.03-.33,1.57-.31,1.35-.61,2.7-.96,4.05-.02.08-.05.16-.07.24-.07.35-.16.67-.26,1.03-.28,1.03-.56,2.05-.87,3.08-.19.65-.4,1.27-.56,1.89-.02,0-.02.03-.02.03,0,.03-.02.08-.05.11-.05.24-.12.46-.21.7-.28.92-.59,1.81-.89,2.7-.05.08-.07.16-.09.24-.26.76-.54,1.49-.82,2.21-.26.76-.54,1.49-.85,2.19-1.81-3.16-3.45-6.61-4.91-10.29ZM416.5,355.62c0,38.91-18.9,70.44-42.24,70.44-5,0-9.79-1.46-14.25-4.13,7.94-16.44,12.56-39.37,12.56-66.31s-4.63-49.9-12.56-66.34c4.46-2.67,9.25-4.13,14.25-4.13,23.34,0,42.24,31.54,42.24,70.47Z"/>
</svg>
