<?xml version="1.0" encoding="UTF-8"?>
<svg id="_레이어_1" data-name="레이어 1" xmlns="http://www.w3.org/2000/svg" viewBox="0 0 566.93 566.93">
  <defs>
    <style>
      .cls-1 {
        fill: none;
        stroke: #000;
        stroke-miterlimit: 10;
      }
    </style>
  </defs>
  <path class="cls-1" d="M394.84,271.1h-39.02c-5.91-36-37.28-63.56-74.93-63.56-11.82,0-23.04,2.72-33.01,7.56-25.16-50.39-77.27-85.07-137.31-85.07-6.83,0-12.39,5.54-12.39,12.37s5.56,12.37,12.39,12.37c51.74,0,96.44,30.69,116.84,74.85-11.1,11.02-18.8,25.41-21.44,41.49h-28.65c-6.83,0-12.37,5.54-12.37,12.37s5.54,12.37,12.37,12.37h28.65c2.64,16.11,10.35,30.49,21.44,41.51-20.42,44.13-65.1,74.83-116.84,74.83-6.83,0-12.39,5.54-12.39,12.37s5.56,12.37,12.39,12.37c60.04,0,112.15-34.68,137.31-85.07,9.97,4.86,21.19,7.58,33.01,7.58,37.65,0,69.02-27.55,74.93-63.58h39.02c2.42-3.52,3.81-7.78,3.81-12.37s-1.42-8.85-3.81-12.37ZM235.58,314.01c-3.67-5.44-6.41-11.59-7.9-18.18h10.97c-.57,6.21-1.62,12.27-3.07,18.18ZM227.68,271.1c1.5-6.58,4.24-12.74,7.9-18.18,1.45,5.91,2.49,11.97,3.07,18.18h-10.97ZM280.89,228.83c25.91,0,47.62,18.05,53.21,42.26h-70.61c-1-12.59-3.54-24.76-7.43-36.3,7.43-3.81,15.88-5.96,24.83-5.96ZM280.89,338.09c-8.95,0-17.4-2.14-24.83-5.96,3.89-11.54,6.43-23.71,7.43-36.3h70.61c-5.59,24.21-27.3,42.26-53.21,42.26ZM468.76,283.46c0,6.83-5.54,12.37-12.37,12.37h-41.04c2.42-3.52,3.81-7.78,3.81-12.37s-1.42-8.85-3.81-12.37h41.04c6.83,0,12.37,5.54,12.37,12.37Z"/>
</svg>
