<?xml version="1.0" encoding="UTF-8"?>
<svg id="_레이어_1" data-name="레이어 1" xmlns="http://www.w3.org/2000/svg" viewBox="0 0 241.36 566.93">
  <defs>
    <style>
      .cls-1 {
        fill: none;
        stroke: #000;
        stroke-miterlimit: 10;
      }
    </style>
  </defs>
  <path class="cls-1" d="M222.94,333.33h-29.29c-1.72-12.87-6.8-24.7-14.36-34.51l20.75-20.75c3.75-3.75,3.75-9.82,0-13.57-3.75-3.73-9.82-3.73-13.55,0l-20.75,20.75c-9.84-7.54-21.64-12.62-34.51-14.34v-30.4c0-5.29-4.29-9.58-9.58-9.58s-9.58,4.29-9.58,9.58v30.4c-12.87,1.72-24.7,6.8-34.53,14.34l-21.84-21.84c-3.75-3.75-9.82-3.75-13.57,0-3.75,3.73-3.75,9.8,0,13.55l21.84,21.84c-7.54,9.84-12.62,21.64-14.34,34.53h-29.29c-5.29,0-9.58,4.29-9.58,9.58s4.29,9.58,9.58,9.58h29.31c1.7,12.87,6.78,24.7,14.34,34.53l-20.75,20.73c-3.75,3.75-3.75,9.82,0,13.57,1.87,1.85,4.33,2.8,6.78,2.8s4.91-.95,6.76-2.8l20.75-20.75c9.84,7.54,21.66,12.62,34.53,14.34v28.21c0,5.29,4.29,9.58,9.58,9.58s9.58-4.29,9.58-9.58v-28.21c12.87-1.72,24.68-6.8,34.51-14.34l19.65,19.65c1.87,1.87,4.33,2.8,6.78,2.8s4.91-.93,6.78-2.8c3.73-3.75,3.73-9.82,0-13.57l-19.67-19.67c7.56-9.84,12.64-21.64,14.34-34.49h29.31c5.29,0,9.58-4.29,9.58-9.58s-4.29-9.58-9.58-9.58ZM131.23,287.56c8.39,1.43,16.12,4.71,22.78,9.43l-22.78,22.78v-32.21ZM112.07,287.56v32.23l-22.78-22.78c6.67-4.73,14.4-8.02,22.78-9.45ZM75.72,310.55l22.78,22.78h-32.21c1.43-8.39,4.71-16.12,9.43-22.78ZM75.72,375.28c-4.71-6.67-8-14.4-9.43-22.78h32.21l-22.78,22.78ZM112.07,398.28c-8.39-1.43-16.12-4.71-22.78-9.45l22.78-22.78v32.23ZM125.61,352.5l-3.96,3.98-3.98-3.98h-5.6v-5.6l-3.98-3.98,3.98-3.98v-5.6h5.6l3.98-3.98,3.96,3.98h5.62v5.6l3.96,3.98-3.96,3.96v5.62h-5.62ZM131.23,398.28v-32.21l22.78,22.78c-6.67,4.71-14.4,8-22.78,9.43ZM167.56,375.28l-22.76-22.78h32.21c-1.43,8.39-4.71,16.12-9.45,22.78ZM144.78,333.33l22.78-22.78c4.73,6.67,8.02,14.4,9.45,22.78h-32.23Z"/>
</svg>
