<?xml version="1.0" encoding="UTF-8"?>
<svg id="_레이어_1" data-name="레이어 1" xmlns="http://www.w3.org/2000/svg" viewBox="0 0 566.93 566.93">
  <defs>
    <style>
      .cls-1 {
        fill: none;
        stroke: #000;
        stroke-miterlimit: 10;
      }
    </style>
  </defs>
  <path class="cls-1" d="M374.87,425.86l-110.38-47.2,11.02-4.71h.02l32.21,13.76c1.57.67,3.24,1,4.86,1,4.79,0,9.35-2.82,11.37-7.5,2.69-6.28-.22-13.54-6.51-16.23l-10.5-4.49,67.89-29.02c6.28-2.67,9.2-9.95,6.51-16.23-.32-.75-.7-1.42-1.12-2.07.1-.17.2-.37.27-.57,2.69-6.28-.22-13.54-6.51-16.23l-58.42-24.98,1.87-.8c6.28-2.69,9.2-9.97,6.51-16.23-.32-.75-.7-1.42-1.15-2.07.12-.17.22-.37.3-.57,2.67-6.28-.25-13.56-6.53-16.23l-10.47-4.49,67.89-29.02c6.28-2.69,9.2-9.95,6.51-16.23-2.69-6.28-9.97-9.2-16.23-6.51l-89.61,38.32-68.44-29.27,110.36-47.2c6.28-2.69,9.2-9.97,6.53-16.26-2.69-6.28-9.97-9.18-16.26-6.51l-114.82,49.12c-6.26,2.67-9.18,9.95-6.51,16.23.8,1.85,1.99,3.39,3.44,4.59-1.45,1.2-2.64,2.77-3.44,4.61-2.67,6.28.25,13.56,6.51,16.26l52.83,22.59c-2.92,3.47-3.81,8.4-1.92,12.84.8,1.85,1.97,3.42,3.44,4.61-1.45,1.2-2.64,2.77-3.44,4.61-2.69,6.28.22,13.54,6.51,16.23l3.22,1.37-59.77,25.56c-6.28,2.69-9.2,9.95-6.51,16.23.8,1.85,1.97,3.42,3.44,4.61-1.45,1.2-2.64,2.77-3.44,4.61-2.69,6.26.22,13.54,6.51,16.23l52.81,22.59c-2.92,3.47-3.81,8.4-1.92,12.84.77,1.85,1.97,3.42,3.42,4.61-1.45,1.22-2.62,2.77-3.42,4.61-2.67,6.28.22,13.56,6.51,16.23l114.82,49.12c1.6.67,3.24,1,4.86,1,4.81,0,9.38-2.82,11.37-7.53,2.69-6.26-.22-13.54-6.51-16.23ZM274.66,244.44l20.52,8.75-11.05,4.74-20.5-8.78,11.02-4.71ZM207.09,317.77l77.05-32.94,68.47,29.25-77.07,32.96-68.44-29.27Z"/>
</svg>
