<?xml version="1.0" encoding="UTF-8"?>
<svg id="_레이어_1" data-name="레이어 1" xmlns="http://www.w3.org/2000/svg" viewBox="0 0 239.93 566.93">
  <defs>
    <style>
      .cls-1 {
        fill: none;
        stroke: #000;
        stroke-miterlimit: 10;
      }
    </style>
  </defs>
  <path class="cls-1" d="M13.69,275.25c0,8.85,5.44,16.46,13.14,19.62-8.38,15.18-13.14,32.61-13.14,51.11,0,58.49,47.62,106.12,106.12,106.12s106.12-47.62,106.12-106.12v-70.74c0-.37,0-.72-.02-1.1-.32-33.11-15.91-62.68-40.07-81.91-.02-2.64-.92-5.31-2.74-7.53-3.47-4.19-9.2-5.44-13.96-3.39-14.76-7.78-31.54-12.19-49.32-12.19s-34.11,4.29-48.72,11.87c-11.99-10.82-20.42-25.53-23.19-42.14h156.83c6.63,0,12.02-5.39,12.02-12.02s-5.39-12.02-12.02-12.02H34.91c-6.63,0-12.02,5.39-12.02,12.02,0,26.43,10.62,50.42,27.83,67.92-22.64,19.5-37.03,48.35-37.03,80.49ZM119.81,430.89c-46.9,0-84.9-38-84.9-84.9,0-18.48,5.91-35.58,15.91-49.52h132.7v49.52c0,10.82,8.13,19.75,18.6,21.02-9.35,36.73-42.66,63.88-82.31,63.88ZM72.84,275.25c13.44-8.98,29.6-14.19,46.98-14.19s33.54,5.21,46.98,14.19h-93.95ZM119.81,190.35c9.35,0,18.35,1.5,26.75,4.31-8.45,3.34-17.55,5.09-26.75,5.09s-18.48-1.8-26.75-5.11c8.4-2.79,17.4-4.29,26.75-4.29ZM67.45,208.38c15.11,9.75,33.09,15.41,52.36,15.41s36.83-5.41,52.36-15.38c14.51,11.37,25.26,27.4,29.95,45.83-6.41.77-11.92,4.41-15.23,9.6-18.28-14.99-41.66-23.96-67.07-23.96-31.34,0-59.59,13.66-79.04,35.38h-5.86c0-27.15,12.74-51.31,32.54-66.87Z"/>
</svg>
