<?xml version="1.0" encoding="UTF-8"?>
<svg id="_레이어_1" data-name="레이어 1" xmlns="http://www.w3.org/2000/svg" viewBox="0 0 566.93 566.93">
  <defs>
    <style>
      .cls-1 {
        fill: none;
        stroke: #000;
        stroke-miterlimit: 10;
      }
    </style>
  </defs>
  <path class="cls-1" d="M344.5,199.74h-13.4c7.56,10.01,12.04,22.45,12.04,35.91s-4.48,25.92-12.04,35.93h13.4c6.55,0,11.87,5.32,11.87,11.87s-5.32,11.87-11.87,11.87h-49.17v18.49h35.93c5.74,0,10.39,4.65,10.39,10.39s-4.65,10.39-10.39,10.39h-35.93v8.1h11.64c5.74,0,10.39,4.65,10.39,10.39s-4.65,10.39-10.39,10.39h-11.64v67.76c0,6.55-5.3,11.87-11.87,11.87s-11.87-5.32-11.87-11.87v-67.76h-11.62c-5.74,0-10.39-4.65-10.39-10.39s4.65-10.39,10.39-10.39h11.62v-8.1h-34.32c-5.74,0-10.39-4.65-10.39-10.39s4.65-10.39,10.39-10.39h34.32v-18.49h-49.15c-6.55,0-11.87-5.32-11.87-11.87s5.32-11.87,11.87-11.87h13.42c-7.56-10.01-12.06-22.47-12.06-35.93s4.5-25.9,12.06-35.91h-13.42c-6.55,0-11.87-5.32-11.87-11.87s5.32-11.87,11.87-11.87h49.15v-40.31c0-6.55,5.32-11.87,11.87-11.87s11.87,5.32,11.87,11.87v40.31h49.17c6.55,0,11.87,5.32,11.87,11.87s-5.32,11.87-11.87,11.87ZM295.33,275.8c3.39-1.01,6.6-2.43,9.57-4.21h-9.57v4.21ZM271.58,275.8v-4.21h-9.57c2.97,1.78,6.18,3.2,9.57,4.21ZM295.33,195.51c-3.77-1.11-7.75-1.72-11.87-1.72s-8.1.61-11.87,1.72c-3.39,1.01-6.62,2.43-9.59,4.23h42.95c-2.97-1.8-6.2-3.22-9.61-4.23Z"/>
</svg>
