<?xml version="1.0" encoding="UTF-8"?>
<svg id="_레이어_1" data-name="레이어 1" xmlns="http://www.w3.org/2000/svg" viewBox="0 0 566.93 566.93">
  <defs>
    <style>
      .cls-1 {
        fill: none;
        stroke: #000;
        stroke-miterlimit: 10;
      }
    </style>
  </defs>
  <path class="cls-1" d="M344.66,272.85c4.9,0,8.88,3.97,8.88,8.88,0,27.91-10.85,53.31-28.57,72.23h117c4.9,0,8.88,3.97,8.88,8.88s-3.97,8.88-8.88,8.88h-138.68c-16.15,10.01-35.16,15.77-55.51,15.77-4.9,0-8.88-3.97-8.88-8.88,0-2.77,1.27-5.26,3.28-6.89h-8.68v49.19c0,4.9-3.97,8.88-8.88,8.88s-8.88-3.97-8.88-8.88v-49.19h-15.68c-24.22,15.7-40.28,42.96-40.28,73.91,0,4.9-3.97,8.88-8.88,8.88s-8.88-3.97-8.88-8.88c0-28.73,11.51-54.83,30.18-73.91h-57.25c-4.9,0-8.88-3.97-8.88-8.88s3.97-8.88,8.88-8.88h80.13c6.48-3.74,13.41-6.82,20.66-9.13v-40.05c0-4.91,3.97-8.88,8.88-8.88s8.88,3.97,8.88,8.88v36.05c4.67-.64,9.43-.97,14.29-.97s8.88,3.97,8.88,8.88c0,1.95-.63,3.74-1.7,5.21h43.03c22.82-15.91,37.79-42.35,37.79-72.23,0-4.91,3.97-8.88,8.88-8.88Z"/>
</svg>
