<?xml version="1.0" encoding="UTF-8"?>
<svg id="_레이어_1" data-name="레이어 1" xmlns="http://www.w3.org/2000/svg" viewBox="0 0 566.93 566.93">
  <defs>
    <style>
      .cls-1 {
        fill: none;
        stroke: #000;
        stroke-miterlimit: 10;
      }
    </style>
  </defs>
  <path class="cls-1" d="M146.51,354.58c0,46.19,37.59,83.79,83.79,83.79,35.07,0,65.16-21.65,77.65-52.26,6.08.86,12.29,1.3,18.61,1.3,4.93,0,8.93-4,8.93-8.93s-4-8.93-8.93-8.93c-4.62,0-9.18-.27-13.66-.81.79-4.61,1.21-9.34,1.21-14.16,0-5.22-.49-10.35-1.4-15.3,3.47-.63,7.07-.95,10.73-.95,33.08,0,60,26.92,60,60s-26.92,60-60,60c-8.66,0-17.01-1.8-24.8-5.34-4.5-2.03-9.79-.05-11.82,4.43-2.03,4.5-.05,9.79,4.43,11.82,10.15,4.61,20.96,6.95,32.19,6.95,42.92,0,77.85-34.93,77.85-77.85s-34.93-77.85-77.85-77.85c-5.43,0-10.73.56-15.85,1.62-12.72-30.11-42.58-51.3-77.27-51.3-6.66,0-13.14.77-19.34,2.25-1.22-6.8-1.87-13.8-1.87-20.96,0-64.78,52.69-117.47,117.47-117.47,4.93,0,8.93-3.99,8.93-8.93s-4-8.93-8.93-8.93c-74.63,0-135.32,60.7-135.32,135.32,0,9.25.94,18.3,2.72,27.03-28.04,13.55-47.44,42.29-47.44,75.47ZM298.79,354.58c0,3.89-.32,7.7-.95,11.43-6.84-1.73-13.46-4.07-19.76-6.91v-.02c5.49-6.32,12.25-11.48,19.9-15.08.54,3.46.81,6.98.81,10.58ZM230.3,286.09c27.89,0,51.9,16.68,62.59,40.62-12.11,5.2-22.66,13.37-30.7,23.59-22.24-14.61-39.25-36.58-47.53-62.43,5.02-1.15,10.26-1.78,15.64-1.78ZM197.96,294.21c9.68,29.55,29.3,54.63,54.89,71.3-4.66,9.97-7.27,21.11-7.27,32.82,0,4.93,4,8.93,8.93,8.93s8.93-3.99,8.93-8.93c0-8.55,1.8-16.68,5.04-24.04,7.67,3.67,15.75,6.62,24.13,8.8-10.82,23.59-34.64,39.99-62.3,39.99-37.81,0-68.47-30.66-68.47-68.49,0-26.13,14.63-48.82,36.13-60.37Z"/>
</svg>
