<?xml version="1.0" encoding="UTF-8"?>
<svg id="_레이어_1" data-name="레이어 1" xmlns="http://www.w3.org/2000/svg" viewBox="0 0 566.93 566.93">
  <defs>
    <style>
      .cls-1 {
        fill: none;
        stroke: #000;
        stroke-miterlimit: 10;
      }
    </style>
  </defs>
  <path class="cls-1" d="M387.19,291.11c0-41.44-33.59-75.03-75.03-75.03s-75.03,33.59-75.03,75.03,33.59,75.03,75.03,75.03,75.03-33.59,75.03-75.03ZM312.16,344.94c29.68,0,53.83-24.15,53.83-53.83s-24.15-53.83-53.83-53.83-53.83,24.15-53.83,53.83,24.15,53.83,53.83,53.83ZM285.6,169.18c0-20.99-14.09-38.72-33.31-44.21-2.97-17.18-17.95-30.24-35.98-30.24-20.2,0-36.58,16.38-36.58,36.58,0,11.99,5.78,22.64,14.69,29.3-.55,2.77-.82,5.64-.82,8.58,0,25.41,20.6,46,46,46s46-20.6,46-46ZM213.02,155.02c4.99-9.3,14.71-15.71,25.93-15.93-3.24,9.38-12.17,16.16-22.64,16.16-1.12,0-2.22-.07-3.29-.22ZM192.35,131.31c0-13.22,10.75-23.94,23.96-23.94,10.35,0,19.2,6.61,22.54,15.83-17.35.25-32.34,10.12-39.94,24.51-4.06-4.26-6.56-10.05-6.56-16.41ZM209.48,169.18c0-.67.02-1.32.07-1.97,2.19.42,4.44.65,6.76.65,16.66,0,30.72-11.12,35.11-26.38,10.75,4.59,18.3,15.28,18.3,27.7,0,16.61-13.51,30.12-30.12,30.12s-30.12-13.51-30.12-30.12Z"/>
</svg>
