<?xml version="1.0" encoding="UTF-8"?>
<svg id="_레이어_1" data-name="레이어 1" xmlns="http://www.w3.org/2000/svg" viewBox="0 0 239.93 566.93">
  <defs>
    <style>
      .cls-1 {
        fill: none;
        stroke: #000;
        stroke-miterlimit: 10;
      }
    </style>
  </defs>
  <path class="cls-1" d="M81.15,326.01h.2c2.85-38.67,35.14-69.14,74.5-69.14s74.71,33.45,74.71,74.71-33.45,74.71-74.71,74.71h-.2c-2.85,38.65-35.12,69.13-74.5,69.13S6.46,441.97,6.46,400.71s33.44-74.69,74.69-74.69ZM155.86,391.76c33.19,0,60.2-26.99,60.2-60.18s-27.01-60.18-60.2-60.18-57.93,24.79-60.04,56.07c31.38,6.23,55.67,32.13,59.51,64.29h.53ZM96.69,342.56c4.23,22.88,21.43,41.25,43.65,47.17-4.23-22.86-21.43-41.23-43.65-47.17ZM81.15,460.9c31.79,0,57.91-24.79,60.06-56.05-31.38-6.25-55.69-32.15-59.53-64.33h-.53c-33.17,0-60.18,26.99-60.18,60.18s27.01,60.2,60.18,60.2Z"/>
</svg>
