<?xml version="1.0" encoding="UTF-8"?>
<svg id="_레이어_1" data-name="레이어 1" xmlns="http://www.w3.org/2000/svg" viewBox="0 0 225.27 566.93">
  <defs>
    <style>
      .cls-1 {
        fill: none;
        stroke: #000;
        stroke-miterlimit: 10;
      }
    </style>
  </defs>
  <path class="cls-1" d="M154.88,147.37c0,5.58-4.52,10.1-10.1,10.1h-79.25c-18.98,0-34.43,15.45-34.43,34.45s15.45,34.43,34.43,34.43c7.07,0,13.85-2.1,19.61-6.11,4.58-3.18,10.87-2.04,14.05,2.55s2.04,10.89-2.55,14.07c-9.16,6.35-19.91,9.71-31.11,9.71-30.11,0-54.63-24.52-54.63-54.65s24.52-54.65,54.63-54.65h79.25c5.58,0,10.1,4.52,10.1,10.1ZM215.87,338.11c0-50.48-41.07-91.55-91.54-91.55-16.01,0-31.77,4.2-45.58,12.14-4.84,2.78-6.5,8.96-3.72,13.79,2.78,4.84,8.95,6.5,13.79,3.72,10.75-6.18,23.03-9.45,35.51-9.45,39.34,0,71.34,32,71.34,71.34s-32,71.34-71.34,71.34c-6.3,0-12.55-.82-18.57-2.44-5.38-1.44-10.93,1.75-12.38,7.13-1.45,5.39,1.75,10.93,7.13,12.38,7.73,2.08,15.74,3.13,23.81,3.13,50.48,0,91.54-41.07,91.54-91.54Z"/>
</svg>
