<?xml version="1.0" encoding="UTF-8"?>
<svg id="_레이어_1" data-name="레이어 1" xmlns="http://www.w3.org/2000/svg" viewBox="0 0 566.93 566.93">
  <defs>
    <style>
      .cls-1 {
        fill: none;
        stroke: #000;
        stroke-miterlimit: 10;
      }
    </style>
  </defs>
  <path class="cls-1" d="M137.23,467.8c-36.99,0-67.08-30.09-67.08-67.08s30.09-67.08,67.08-67.08c3.56,0,6.44,2.88,6.44,6.44s-2.89,6.44-6.44,6.44c-29.88,0-54.2,24.31-54.2,54.2s24.31,54.2,54.2,54.2c3.56,0,6.44,2.88,6.44,6.44s-2.89,6.44-6.44,6.44ZM496.78,400.71c0-36.99-30.09-67.08-67.08-67.08-3.56,0-6.44,2.88-6.44,6.44s2.89,6.44,6.44,6.44c29.88,0,54.2,24.31,54.2,54.2s-24.31,54.2-54.2,54.2c-3.56,0-6.44,2.88-6.44,6.44s2.89,6.44,6.44,6.44c36.99,0,67.08-30.09,67.08-67.08Z"/>
</svg>
