<?xml version="1.0" encoding="UTF-8"?>
<svg id="_레이어_1" data-name="레이어 1" xmlns="http://www.w3.org/2000/svg" viewBox="0 0 566.93 566.93">
  <defs>
    <style>
      .cls-1 {
        fill: none;
        stroke: #000;
        stroke-miterlimit: 10;
      }
    </style>
  </defs>
  <path class="cls-1" d="M212.68,219.24c-4.49,0-8.35-3.32-8.96-7.83l-5.43-39.91-.5,1.63c-1.17,3.79-4.68,6.38-8.65,6.38h-35.06c-5,0-9.05-4.05-9.05-9.05s4.05-9.05,9.05-9.05h28.38l10.63-34.42c1.25-4.06,5.15-6.7,9.39-6.35,4.23.35,7.65,3.59,8.23,7.8l3.6,26.43c1.78.32,3.46,1.17,4.79,2.51l4.03,4.03,3.09-19.47c.7-4.37,4.44-7.6,8.87-7.63h.07c4.39,0,8.16,3.16,8.92,7.49l.21,1.21c1.09-.37,2.25-.54,3.48-.47,4.78.29,8.5,4.25,8.5,9.04v9.83h61.61c5,0,9.05,4.05,9.05,9.05s-4.05,9.05-9.05,9.05h-64.98l-1.08,8.77c-.55,4.45-4.27,7.83-8.76,7.94-4.53.07-8.37-3.07-9.15-7.49l-1.55-8.87c-.52.09-1.04.14-1.58.14h-9.02v30.18c0,4.76-3.69,8.71-8.44,9.03-.21.01-.41.02-.62.02ZM349.88,160.72c-5.08,0-9.21,4.12-9.21,9.21s4.12,9.21,9.21,9.21,9.21-4.12,9.21-9.21-4.12-9.21-9.21-9.21ZM412.71,160.71c-2.14,0-4.11.75-5.68,1.97-1.57-1.22-3.54-1.97-5.71-1.97-5.09,0-9.2,4.14-9.2,9.2s4.11,9.23,9.2,9.23c2.17,0,4.14-.75,5.71-1.99,1.57,1.27,3.54,1.99,5.68,1.99,5.09,0,9.2-4.14,9.2-9.23s-4.11-9.2-9.2-9.2Z"/>
</svg>
