<?xml version="1.0" encoding="UTF-8"?>
<svg id="_레이어_1" data-name="레이어 1" xmlns="http://www.w3.org/2000/svg" viewBox="0 0 566.93 566.93">
  <defs>
    <style>
      .cls-1 {
        fill: none;
        stroke: #000;
        stroke-miterlimit: 10;
      }
    </style>
  </defs>
  <path class="cls-1" d="M438.11,177.84c-3.24-3.79-8.25-5.11-12.74-3.84-4.89-13.94-15.93-24.96-29.87-29.82.67-4.16-.82-8.55-4.29-11.47-5.26-4.36-13.04-3.67-17.43,1.57l-7.51,8.98-.02.02c-19.05,5.34-33.39,22.02-35.26,42.29l-27.28,32.71c-12.57-5.01-26.28-7.78-40.62-7.78-60.69,0-110.08,49.37-110.08,110.08,0,13.49,2.44,26.41,6.88,38.35-4.36,6.71-6.88,14.71-6.88,23.29,0,4.86.82,9.55,2.34,13.91l-16.66,19.95c-4.36,5.24-3.67,13.04,1.57,17.43.22.17.45.37.7.52.05.07.12.12.2.15,2.27,1.92,5.09,2.89,7.9,2.89s5.68-.97,8.03-2.97l17.3-14.79c6.33,3.69,13.66,5.81,21.52,5.81,7.28,0,14.16-1.82,20.17-5.04,14.26,6.76,30.19,10.55,47,10.55,60.69,0,110.08-49.37,110.08-110.06,0-20.94-5.88-40.57-16.11-57.27l29.27-25.01.02-.02h.02c18.75-2.67,34.08-16.08,39.57-33.79l10.77-9.2c5.21-4.44,5.81-12.24,1.37-17.45ZM263.1,231.7c9.1,0,17.88,1.37,26.16,3.91l-86.92,104.17c-2.09-.3-4.24-.47-6.41-.47-6.68,0-13.02,1.55-18.68,4.29-1.97-7.36-3.02-15.06-3.02-23.01,0-49.09,39.77-88.89,88.86-88.89ZM217.62,382.43c-.05,4.49-1.45,8.65-3.81,12.09-3.89,5.68-10.45,9.4-17.88,9.4-1.07,0-2.14-.07-3.19-.22l-.87.72c-.47-.37-.92-.77-1.37-1.17-2.32-.6-4.51-1.57-6.46-2.87-4.76-3.12-8.2-8.05-9.35-13.81-.07-.22-.1-.42-.12-.65-.22-1.2-.32-2.44-.32-3.69,0-8.08,4.41-15.13,10.97-18.85,3.14-1.82,6.81-2.84,10.72-2.84,2.69,0,5.26.47,7.63,1.37,3.09,1.17,5.86,3.02,8.08,5.39,3.72,3.86,5.98,9.13,5.98,14.94v.2ZM220.74,347.24l26.53-22.66,65.05-77.99c4.84,3.19,9.33,6.88,13.44,10.97l-78.49,67.02-22.02,26.38c-1.42-1.35-2.92-2.59-4.51-3.72ZM263.1,409.45c-10.65,0-20.87-1.87-30.32-5.29,3.86-6.41,6.06-13.91,6.06-21.94,0-5.44-1.02-10.65-2.89-15.43l104.8-89.51c7.13,12.82,11.22,27.58,11.22,43.31,0,49.07-39.79,88.86-88.86,88.86ZM341.87,243.77c-4.86-4.99-10.17-9.5-15.91-13.51l12.12-14.54c4.24,6.88,10.17,12.59,17.18,16.63l-13.39,11.42ZM373.34,216.89c-9.75-2.19-17.53-9.6-20.27-19.12l29.17-34.98c13.26,1.32,23.76,12.09,24.63,25.48l-33.54,28.62Z"/>
</svg>
