<?xml version="1.0" encoding="UTF-8"?>
<svg id="_레이어_1" data-name="레이어 1" xmlns="http://www.w3.org/2000/svg" viewBox="0 0 566.93 566.93">
  <defs>
    <style>
      .cls-1 {
        fill: none;
        stroke: #000;
        stroke-miterlimit: 10;
      }
    </style>
  </defs>
  <path class="cls-1" d="M189.2,360.45c0,9.44-7.65,17.09-17.09,17.09s-17.09-7.65-17.09-17.09,7.65-17.09,17.09-17.09,17.09,7.65,17.09,17.09ZM210.15,343.36c-9.44,0-17.09,7.65-17.09,17.09s7.65,17.09,17.09,17.09,17.09-7.65,17.09-17.09-7.65-17.09-17.09-17.09ZM248.2,343.36c-9.44,0-17.09,7.65-17.09,17.09s7.65,17.09,17.09,17.09,17.09-7.65,17.09-17.09-7.65-17.09-17.09-17.09ZM172.11,381.68c-9.44,0-17.09,7.65-17.09,17.09s7.65,17.09,17.09,17.09,17.09-7.65,17.09-17.09-7.65-17.09-17.09-17.09ZM210.15,381.68c-9.44,0-17.09,7.65-17.09,17.09s7.65,17.09,17.09,17.09,17.09-7.65,17.09-17.09-7.65-17.09-17.09-17.09ZM248.2,381.68c-9.44,0-17.09,7.65-17.09,17.09s7.65,17.09,17.09,17.09,17.09-7.65,17.09-17.09-7.65-17.09-17.09-17.09ZM172.11,419.99c-9.44,0-17.09,7.65-17.09,17.09s7.65,17.09,17.09,17.09,17.09-7.65,17.09-17.09-7.65-17.09-17.09-17.09ZM210.15,419.99c-9.44,0-17.09,7.65-17.09,17.09s7.65,17.09,17.09,17.09,17.09-7.65,17.09-17.09-7.65-17.09-17.09-17.09ZM248.2,419.99c-9.44,0-17.09,7.65-17.09,17.09s7.65,17.09,17.09,17.09,17.09-7.65,17.09-17.09-7.65-17.09-17.09-17.09Z"/>
</svg>
