<?xml version="1.0" encoding="UTF-8"?>
<svg id="_레이어_1" data-name="레이어 1" xmlns="http://www.w3.org/2000/svg" viewBox="0 0 199.56 566.93">
  <defs>
    <style>
      .cls-1 {
        fill: none;
        stroke: #000;
        stroke-miterlimit: 10;
      }
    </style>
  </defs>
  <path class="cls-1" d="M183.83,377.89c-6.13-3.02-13.56-.5-16.58,5.64-11.74,23.86-35.56,38.7-62.14,38.7-6.56,0-12.92-.92-18.93-2.64-.52-4.99-1.97-9.67-4.21-13.91,3.72.95,7.63,1.47,11.64,1.47,25.73,0,46.7-20.94,46.7-46.7s-20.97-46.7-46.7-46.7-46.7,20.94-46.7,46.7c0,9.28,2.72,17.93,7.41,25.21-2.04-.35-4.16-.52-6.31-.52-1.4,0-2.77.07-4.11.22-5.14-9.65-8.03-20.67-8.03-32.34,0-38.17,31.07-69.22,69.24-69.22,4.26,0,8.53.4,12.69,1.17,6.71,1.25,13.17-3.19,14.41-9.92,1.25-6.71-3.19-13.17-9.9-14.41-5.64-1.05-11.44-1.57-17.2-1.57-51.81,0-93.98,42.14-93.98,93.95,0,15.41,3.74,29.97,10.32,42.81-7.28,6.98-11.82,16.81-11.82,27.68,0,21.14,17.23,38.35,38.37,38.35,13.74,0,25.81-7.23,32.59-18.1,7.83,2.12,16.03,3.24,24.51,3.24,36.08,0,68.42-20.15,84.35-52.54,3.02-6.13.47-13.56-5.64-16.56ZM93.61,334.96c14.06,0,25.48,11.39,25.48,25.48s-11.42,25.51-25.48,25.51-25.51-11.42-25.51-25.51,11.42-25.48,25.51-25.48ZM48.01,440.65c-9.47,0-17.15-7.68-17.15-17.15,0-3.49,1.05-6.76,2.84-9.45,7.43,8.68,16.41,15.98,26.51,21.49-3.09,3.17-7.43,5.11-12.19,5.11Z"/>
</svg>
