<?xml version="1.0" encoding="UTF-8"?>
<svg id="_레이어_1" data-name="레이어 1" xmlns="http://www.w3.org/2000/svg" viewBox="0 0 223.12 566.93">
  <defs>
    <style>
      .cls-1 {
        fill: none;
        stroke: #000;
        stroke-miterlimit: 10;
      }
    </style>
  </defs>
  <path class="cls-1" d="M22.84,317.86c-9.44,0-17.09,7.65-17.09,17.09s7.65,17.09,17.09,17.09,17.09-7.65,17.09-17.09-7.65-17.09-17.09-17.09ZM60.88,317.86c-9.44,0-17.09,7.65-17.09,17.09s7.65,17.09,17.09,17.09,17.09-7.65,17.09-17.09-7.65-17.09-17.09-17.09ZM138.75,334.95c0,9.45-7.63,17.1-17.08,17.1-4.36,0-8.35-1.65-11.37-4.36-3.02,2.72-7.01,4.36-11.37,4.36-9.45,0-17.08-7.65-17.08-17.1s7.63-17.08,17.08-17.08c4.36,0,8.35,1.65,11.37,4.36,3.02-2.72,7.01-4.36,11.37-4.36,9.45,0,17.08,7.65,17.08,17.08ZM159.71,317.86c-9.44,0-17.09,7.65-17.09,17.09s7.65,17.09,17.09,17.09,17.09-7.65,17.09-17.09-7.65-17.09-17.09-17.09ZM197.76,317.86c-9.44,0-17.09,7.65-17.09,17.09s7.65,17.09,17.09,17.09,17.09-7.65,17.09-17.09-7.65-17.09-17.09-17.09Z"/>
</svg>
