<?xml version="1.0" encoding="UTF-8"?>
<svg id="_레이어_1" data-name="레이어 1" xmlns="http://www.w3.org/2000/svg" viewBox="0 0 470.34 566.93">
  <defs>
    <style>
      .cls-1 {
        fill: none;
        stroke: #000;
        stroke-miterlimit: 10;
      }
    </style>
  </defs>
  <path class="cls-1" d="M464.09,302.28c0,11.2-8.38,20.47-19.2,21.84-9.03,26.31-34.03,45.25-63.38,45.25-3.57,0-6.46-2.89-6.46-6.46s2.89-6.43,6.46-6.43c22.96,0,42.64-14.36,50.49-34.58-5.04-2.59-8.95-7.08-10.8-12.54H51.06c-2.02,5.96-6.51,10.8-12.27,13.24,8.05,19.85,27.53,33.89,50.24,33.89,3.57,0,6.43,2.89,6.43,6.43s-2.87,6.46-6.43,6.46c-29.47,0-54.56-19.1-63.51-45.55-9.92-2.14-17.35-11-17.35-21.54s7.43-19.37,17.35-21.52c8.95-26.45,34.04-45.55,63.51-45.55,3.57,0,6.43,2.89,6.43,6.43s-2.87,6.46-6.43,6.46c-22.72,0-42.21,14.04-50.24,33.89,5.76,2.44,10.27,7.26,12.27,13.24h370.14c1.82-5.46,5.73-9.95,10.8-12.54-7.85-20.22-27.53-34.58-50.49-34.58-3.57,0-6.46-2.89-6.46-6.46s2.89-6.43,6.46-6.43c29.35,0,54.36,18.95,63.41,45.26,10.82,1.4,19.17,10.62,19.17,21.82Z"/>
</svg>
