<?xml version="1.0" encoding="UTF-8"?>
<svg id="_레이어_1" data-name="레이어 1" xmlns="http://www.w3.org/2000/svg" viewBox="0 0 334.4 566.93">
  <defs>
    <style>
      .cls-1 {
        fill: none;
        stroke: #000;
        stroke-miterlimit: 10;
      }
    </style>
  </defs>
  <path class="cls-1" d="M309.36,275.81c8.38-15.18,13.14-32.61,13.14-51.11,0-58.49-47.62-106.12-106.12-106.12s-106.12,47.62-106.12,106.12v70.74c0,.37,0,.72.02,1.1.17,15.96,3.86,31.12,10.37,44.66-5.98-1.2-12.17-1.8-18.48-1.8-18.6,0-36.83,5.41-52.36,15.38-8.85,6.17-13.73,12.96-13.66,16.16.04,2.05.67,3.85.67,3.85s.7,2.02,2.07,3.68c3.47,4.19,9.2,5.44,13.96,3.39,14.76,7.78,31.54,12.19,49.32,12.19s34.11-4.29,48.72-11.87c11.99,10.82,20.42,25.53,23.19,42.14H17.26c-6.63,0-12.02,5.39-12.02,12.02s5.39,12.02,12.02,12.02h169.82c6.63,0,12.02-5.39,12.02-12.02,0-26.43-10.62-50.42-27.83-67.92l-7.38-6.01.12-.12c-14.51-11.37-25.26-27.4-29.95-45.83,6.41-.77,11.92-4.41,15.23-9.6,18.28,14.99,41.66,23.96,67.07,23.96,31.34,0,59.59-13.66,79.04-35.38h5.86c0,27.15-12.74,51.31-32.54,66.87-2,4-1.83,8.63.56,11.83,3.3,4.42,10.5,5.63,16.17,1.79,19.53-22.2,30.29-41.2,33.52-53.39,2.29-8.65,3.51-17.74,3.51-27.1,0-8.85-5.44-16.46-13.14-19.62ZM102.19,372.83c-9.35,0-18.35-1.5-26.75-4.31,8.45-3.34,17.55-5.09,26.75-5.09s18.48,1.8,26.75,5.11c-8.4,2.79-17.4,4.29-26.75,4.29ZM216.39,309.62c-17.38,0-33.54-5.21-46.98-14.19h93.95c-13.44,8.98-29.6,14.19-46.98,14.19ZM285.38,274.21h-132.7v-49.52c0-10.82-8.13-19.75-18.6-21.02,9.35-36.73,42.66-63.88,82.31-63.88,46.9,0,84.9,38,84.9,84.9,0,18.48-5.91,35.58-15.91,49.52Z"/>
</svg>
