<?xml version="1.0" encoding="UTF-8"?>
<svg id="_레이어_1" data-name="레이어 1" xmlns="http://www.w3.org/2000/svg" viewBox="0 0 390.97 566.93">
  <defs>
    <style>
      .cls-1 {
        fill: none;
        stroke: #000;
        stroke-miterlimit: 10;
      }
    </style>
  </defs>
  <path class="cls-1" d="M195.4,376.14H18.79c-6.83,0-12.37,5.54-12.37,12.37s5.54,12.37,12.37,12.37h177.38c6.88,35.18,37.95,61.81,75.1,61.81s68.24-26.63,75.13-61.81h24.31c6.83,0,12.37-5.54,12.37-12.37s-5.54-12.37-12.37-12.37h-23.54c-4.91-37.48-37.08-66.52-75.9-66.52s-70.96,29.05-75.87,66.52ZM324.61,400.88c-6.43,23.41-27.88,40.59-53.33,40.59s-46.9-17.18-53.33-40.59h106.67ZM325.68,376.14h-108.81c4.69-25.78,27.28-45.33,54.41-45.33s49.72,19.55,54.41,45.33Z"/>
</svg>
