<?xml version="1.0" encoding="UTF-8"?>
<svg id="_레이어_1" data-name="레이어 1" xmlns="http://www.w3.org/2000/svg" viewBox="0 0 566.93 566.93">
  <defs>
    <style>
      .cls-1 {
        fill: none;
        stroke: #000;
        stroke-miterlimit: 10;
      }
    </style>
  </defs>
  <path class="cls-1" d="M344.67,357.34c1.84-1.6,3-3.97,3-6.59,0-28.2-18.22-52.2-43.52-60.86,6.93-5.89,11.33-14.66,11.33-24.44,0-17.71-14.41-32.12-32.1-32.12s-32.12,14.41-32.12,32.12c0,9.77,4.4,18.54,11.33,24.44-25.3,8.65-43.52,32.67-43.52,60.86,0,2.68,1.21,5.07,3.08,6.67-34.12,20.79-56.97,58.36-56.97,101.15,0,8.31,6.75,15.07,15.09,15.07h206.44c8.31,0,15.07-6.75,15.07-15.07,0-42.85-22.9-80.46-57.1-101.22ZM292.16,250.86c4.93,2.98,8.24,8.4,8.24,14.59s-3.31,11.59-8.24,14.59v-29.18ZM274.57,250.84v29.21c-4.93-3-8.24-8.42-8.24-14.61s3.31-11.63,8.24-14.61ZM274.57,304.87v9.41c0,4.86,3.94,8.79,8.79,8.79s8.79-3.94,8.79-8.79v-9.41c21.27,4.06,37.46,22.58,37.9,44.94-14.31-6.15-30.05-9.55-46.59-9.55s-32.46,3.44-46.82,9.66c.39-22.41,16.59-41,37.92-45.04ZM180.25,458.56c0-57.01,46.21-103.22,103.22-103.22s103.22,46.21,103.22,103.22h-206.44Z"/>
</svg>
