<?xml version="1.0" encoding="UTF-8"?>
<svg id="_레이어_1" data-name="레이어 1" xmlns="http://www.w3.org/2000/svg" viewBox="0 0 566.93 566.93">
  <defs>
    <style>
      .cls-1 {
        fill: none;
        stroke: #000;
        stroke-miterlimit: 10;
      }
    </style>
  </defs>
  <path class="cls-1" d="M396.38,191.78h-33.79c-6.38-31.77-32.54-56.48-65-60.74v-23.54c0-6.83-5.54-12.37-12.37-12.37s-12.37,5.54-12.37,12.37v24.31c-30.27,5.91-54.21,29.75-60.29,59.97h-33.76c-6.83,0-12.37,5.56-12.37,12.39s5.54,12.37,12.37,12.37h32.86c4.11,32.81,29.1,59.22,61.19,65.5v177.38c0,6.83,5.54,12.37,12.37,12.37s12.37-5.54,12.37-12.37v-176.61c34.33-4.49,61.59-31.87,65.9-66.27h32.89c6.83,0,12.37-5.56,12.37-12.37s-5.54-12.39-12.37-12.39ZM297.59,152.54c20.8,3.79,37.53,19.2,43.24,39.25h-43.24v-39.25ZM272.86,153.61v38.17h-38.5c5.26-18.5,19.92-33.06,38.5-38.17ZM272.86,260.28c-20.4-5.61-36.05-22.61-39.77-43.73h39.77v43.73ZM297.59,261.35v-44.81h44.48c-3.96,22.71-21.82,40.69-44.48,44.81Z"/>
</svg>
