<?xml version="1.0" encoding="UTF-8"?>
<svg id="_레이어_1" data-name="레이어 1" xmlns="http://www.w3.org/2000/svg" viewBox="0 0 318.95 566.93">
  <defs>
    <style>
      .cls-1 {
        fill: none;
        stroke: #000;
        stroke-miterlimit: 10;
      }
    </style>
  </defs>
  <path class="cls-1" d="M307.64,385.57c0,52.49-42.71,95.2-95.2,95.2s-90.81-38.47-94.87-87.24c-22.66-14.06-39-37.4-43.71-64.68-37.38-12.84-64.3-48.35-64.3-90.01,0-4.94,3.99-8.93,8.9-8.93s8.9,3.99,8.9,8.93c0,31.37,18.78,58.45,45.7,70.56,1.27-3.34,4.51-5.71,8.3-5.71,4.91,0,8.9,3.99,8.9,8.9,0,.75,0,1.5.02,2.24,4.69.9,9.52,1.37,14.46,1.37,42.66,0,77.37-34.71,77.37-77.37,0-4.94,3.99-8.93,8.9-8.93s8.93,3.99,8.93,8.93c0,52.49-42.71,95.17-95.2,95.17-3.94,0-7.83-.25-11.67-.72,4.99,17.98,16.33,33.36,31.44,43.53.52-.1,1.07-.15,1.62-.15,3.84,0,7.13,2.44,8.35,5.86,10.05,4.79,21.29,7.46,33.16,7.46,42.66,0,77.37-34.71,77.37-77.39,0-4.91,3.99-8.9,8.9-8.9s8.9,3.99,8.9,8.9c0,52.51-42.69,95.2-95.17,95.2-10.72,0-21.04-1.8-30.69-5.06,7.83,34.43,38.67,60.24,75.47,60.24,42.66,0,77.37-34.73,77.37-77.39,0-4.91,3.99-8.9,8.9-8.9s8.93,3.99,8.93,8.9Z"/>
</svg>
