<?xml version="1.0" encoding="UTF-8"?>
<svg id="_레이어_1" data-name="레이어 1" xmlns="http://www.w3.org/2000/svg" viewBox="0 0 389.5 566.93">
  <defs>
    <style>
      .cls-1 {
        fill: none;
        stroke: #000;
        stroke-miterlimit: 10;
      }
    </style>
  </defs>
  <path class="cls-1" d="M10.82,394.46v-173.67c0-3.1,1.87-5.89,4.73-7.08,2.86-1.19,6.16-.53,8.35,1.66l160.59,160.6v-160.68c0-3.1,1.87-5.89,4.73-7.08s6.16-.53,8.35,1.66l166.09,166.09v-154.05c0-4.23,3.43-7.66,7.66-7.66,4.23,0,7.66,3.43,7.66,7.66v172.54c0,3.1-1.87,5.89-4.73,7.08s-6.16.53-8.35-1.66l-166.09-166.09v160.68c0,3.1-1.87,5.89-4.73,7.08-2.86,1.19-6.16.53-8.35-1.66L26.15,239.28v155.18c0,4.23-3.43,7.66-7.66,7.66s-7.66-3.43-7.66-7.66Z"/>
</svg>
